# xmcd
#
# Track frame offsets:
#	150
#	7432
#	25857
#	45762
#	66770
#	84045
#	103565
#	111990
#	114707
#	132915
#	153990
#	168787
#	188130
#	206075
#	226120
#
# Disc length: 3277 seconds
#
# Revision: 3
# Processed by: cddbd v1.5.2PL0 Copyright (c) Steve Scherf et al.
# Submitted via: audiograbber 1.83.01
#
DISCID=b80ccb0f
DTITLE=Crucial Conflict - The Final Tic
DYEAR=1996
DGENRE=Rap
TTITLE0=Intro-Don't Let It
TTITLE1=Final Tic
TTITLE2=Showdown
TTITLE3=Desperado
TTITLE4=Life Ain't The Same
TTITLE5=Hay
TTITLE6=Trigger Happy
TTITLE7=1-900-Off-Your Square
TTITLE8=Lil Advice
TTITLE9=Tell It To The Judge
TTITLE10=Ride The Rodeo
TTITLE11=To The Left
TTITLE12=Just Getting My Money
TTITLE13=Get Up
TTITLE14=Hay (Remix)
EXTD=www.RapMusicGuide.com
EXTT0=
EXTT1=
EXTT2=
EXTT3=
EXTT4=
EXTT5=
EXTT6=
EXTT7=
EXTT8=
EXTT9=
EXTT10=
EXTT11=
EXTT12=
EXTT13=
EXTT14=
PLAYORDER=
